<svg xmlns="http://www.w3.org/2000/svg" xmlns:xlink="http://www.w3.org/1999/xlink" viewBox="0 0 32 32"><defs><path id="a" d="M.225.166h16.454v16.451H.225z"/></defs><g fill="none" fill-rule="evenodd" transform="translate(.14)"><path fill="#DA1C5C" d="M15.78 24.97c-4.92 0-8.91-4-8.92-8.91a.75.75 0 011.5 0c0 4.1 3.32 7.42 7.42 7.43a.74.74 0 010 1.48m8.17-8.17a.75.75 0 01-.74-.74c0-4.1-3.33-7.43-7.43-7.43a.75.75 0 010-1.5c4.92.01 8.92 4 8.92 8.93 0 .4-.33.74-.74.74z"/><path fill="#DA1C5C" d="M15.78 28.44A12.4 12.4 0 013.39 16.06a.7.7 0 011.4 0 11 11 0 0011 10.99.7.7 0 110 1.4h-.01zm11.69-11.68a.7.7 0 01-.7-.7 11 11 0 00-11-10.98.7.7 0 110-1.4 12.4 12.4 0 0112.4 12.38.7.7 0 01-.7.7z"/><path fill="#DA1C5C" d="M15.78 31.83A15.8 15.8 0 010 16.06a.68.68 0 011.36 0c0 7.96 6.46 14.41 14.42 14.42a.68.68 0 010 1.35"/><g transform="translate(14.877 .115)"><mask id="b" fill="#fff"><use xlink:href="#a"/></mask><path fill="#DA1C5C" d="M16 16.62a.67.67 0 01-.68-.67C15.32 7.97 8.86 1.52.9 1.51A.68.68 0 01.9.17a15.8 15.8 0 0115.78 15.77c0 .37-.3.68-.67.68H16z" mask="url(#b)"/></g><circle cx="15.78" cy="16.05" r="5.43" fill="#3F434A"/><path fill="#3F434A" d="M14.38 17.47c0 .43.45.63.87.63.29-.01.57-.12.79-.3l-1.29-1.02a.83.83 0 00-.37.7m.95-2.48c.31-.2.7-.4.7-.77 0-.36-.28-.52-.67-.52-.4 0-.74.16-.74.52 0 .37.41.59.7.77"/><path fill="#FFF" d="M15.25 18.1c-.42 0-.87-.2-.87-.63 0-.28.14-.54.37-.7l1.29 1.03c-.22.18-.5.29-.79.3m.1-4.38c.4 0 .68.15.68.52 0 .36-.39.56-.7.76-.3-.18-.7-.4-.7-.76 0-.37.34-.52.73-.52m5.07 5.13l-.17-.15-1.28-1.06a4.03 4.03 0 001.24-2.07h-2.38c-.1.3-.25.58-.47.8l-.91-.65c.72-.23 1.77-.83 1.77-1.69 0-1.3-1.65-1.46-2.9-1.46-1.42 0-2.9.36-2.9 1.79 0 .69.44 1.13.99 1.47-.73.3-1.36.83-1.36 1.67 0 1.59 1.67 1.97 2.99 1.97.8.03 1.6-.15 2.33-.52l.4.42h2.3c.13-.17.24-.34.35-.52"/></g></svg>